<mxfile host="app.diagrams.net" modified="2021-06-07T15:24:00.576Z" agent="5.0 (Windows NT 10.0; Win64; x64) AppleWebKit/537.36 (KHTML, like Gecko) Chrome/91.0.4472.77 Safari/537.36" etag="BuG4dG9F289BfgMkRclu" version="14.7.6" type="github">
  <diagram id="8maB1NLESnqbv6OFM8SC" name="Page-1">
    <mxGraphModel dx="878" dy="1567" grid="1" gridSize="10" guides="1" tooltips="1" connect="1" arrows="1" fold="1" page="1" pageScale="1" pageWidth="827" pageHeight="1169" math="0" shadow="0">
      <root>
        <mxCell id="0" />
        <mxCell id="1" parent="0" />
        <mxCell id="S95Ez1MxiO2wJvPFgndC-12" value="Booth" style="rounded=1;whiteSpace=wrap;html=1;fillColor=none;dashed=1;verticalAlign=bottom;" vertex="1" parent="1">
          <mxGeometry x="30" y="40" width="300" height="220" as="geometry" />
        </mxCell>
        <mxCell id="S95Ez1MxiO2wJvPFgndC-13" value="Cloud" style="rounded=1;whiteSpace=wrap;html=1;fillColor=none;dashed=1;verticalAlign=bottom;" vertex="1" parent="1">
          <mxGeometry x="400" y="40" width="880" height="390" as="geometry" />
        </mxCell>
        <mxCell id="S95Ez1MxiO2wJvPFgndC-17" style="edgeStyle=orthogonalEdgeStyle;rounded=0;orthogonalLoop=1;jettySize=auto;html=1;entryX=0.5;entryY=0;entryDx=0;entryDy=0;entryPerimeter=0;" edge="1" parent="1" source="S95Ez1MxiO2wJvPFgndC-1" target="S95Ez1MxiO2wJvPFgndC-8">
          <mxGeometry relative="1" as="geometry" />
        </mxCell>
        <mxCell id="S95Ez1MxiO2wJvPFgndC-21" value="" style="edgeStyle=orthogonalEdgeStyle;rounded=0;orthogonalLoop=1;jettySize=auto;html=1;" edge="1" parent="1" source="S95Ez1MxiO2wJvPFgndC-1" target="S95Ez1MxiO2wJvPFgndC-19">
          <mxGeometry relative="1" as="geometry" />
        </mxCell>
        <mxCell id="S95Ez1MxiO2wJvPFgndC-1" value="AWS IOT Core" style="points=[[0,0,0],[0.25,0,0],[0.5,0,0],[0.75,0,0],[1,0,0],[0,1,0],[0.25,1,0],[0.5,1,0],[0.75,1,0],[1,1,0],[0,0.25,0],[0,0.5,0],[0,0.75,0],[1,0.25,0],[1,0.5,0],[1,0.75,0]];outlineConnect=0;fontColor=#232F3E;gradientColor=#60A337;gradientDirection=north;fillColor=#277116;strokeColor=#ffffff;dashed=0;verticalLabelPosition=bottom;verticalAlign=top;align=center;html=1;fontSize=12;fontStyle=0;aspect=fixed;shape=mxgraph.aws4.resourceIcon;resIcon=mxgraph.aws4.iot_core;" vertex="1" parent="1">
          <mxGeometry x="440" y="76" width="78" height="78" as="geometry" />
        </mxCell>
        <mxCell id="S95Ez1MxiO2wJvPFgndC-2" value="Voting BallotÂ &#xa;Machine&#xa;with IOT FreeRTOS" style="shape=image;verticalLabelPosition=bottom;labelBackgroundColor=#ffffff;verticalAlign=top;aspect=fixed;imageAspect=0;image=data:image/png,iVBORw0KGgoAAAANSUhEUgAAAL0AAAELCAMAAAC77XfeAAABEVBMVEX////W39no7en09PTGycYsapDt7e3M0s7BwsHz8vO9vLz39/e3uLjRz83LyMfCwcLf5uHm5eRkIEPZ1dTf3NqysrLa4t3l6ufv8/DZ3drq6enK0c2ptbxDdZTQ3d6drb1jjabHz9dDb5G0wMvX3OHi5eg0ao92kagmX4aqucaTp7kPWYMAAABmhaBRepldGzylmZwAR1WkqKV0VGCyp6rBytOanZuEh4Q0NTS+tbe0wMxmQlBOACuPfYOInrGDanNzmK6qv8BujJGRq64oYWwAUFx4enl9l5tGcntjZWSdsbK4yclwcnCbn5sjIyM9Pj1WWFZhJ0JTFzNXLD58XWmejpNQAC1hN0hWJjmFdHluRVd+7dxlAAALl0lEQVR4nO1dC1faWBelBPPgJgQEhMRx+HiEV+UhgilacDoz9Wun7cxoQXT+/w+ZBBO4SS6US0nmpCtbV6uFVTeHk3N3zstYLEKECBEiRIgQIUKE4IAYIRhs/zkM2od7TuLlYMD/tAVJOZVjqMmnRJ4LCt2zjej+xCXEFEvJPiUqhXhAKJwdbcTZp3ghLfJ01s/klaC4G+huZR+Pp8UsnemTAZL/hu0NcHTGTyYCZB//5X8b8UvZfIKSpPF8lJQoCRSNj73x8xYUAmD/7tdff0vvT/9bODT7Im7q4rvfLy7e/xYa9id3Op9QFL7A6Ym4Ev//xfv3Fx9Ow8Jeubv6qH8c3Bmfej5fNNhfXHz4OSzs06IyELmBOBC/cB+L8U8f3l/8/m5nMgUuYR4nJwqXNi72dDpeUOJKulgsKCfki+fwV23xJdAUFc745vSPPz7tfjYruv5FERMJ8SrB5Tnxi5K+KgwGYl4R88a/i95X4HvEpAmYnH6li7ou5q+My2ZwNUin9cLgs3iVHwwG+ps3uoe+3+ypwH3+fHenf87n9YSuX+V1rvBF1z+eDq6+iPqf5+d/8d/PviDx4qHBY+rJcjTLzgXrW+Wv8/M3ovuNpGavJMVkMpk4JHhezPPfuDqUNyb777U9L/LmD3x1YCTEb9H/+/z8b+472cuiZS/u4PS3X1FFXr/zmJ6ave0zpwdm/4oXtxu/mCaEfFrPWTnroY1/mt/jno2OPSP7xp4TpSw1UlTsBd5H9ilEC0aCxJ4hoFZ2oIY/SQDHfmnTFdhWp+5ApyoAZo/UYV9a0y/V3bfj9RZc9mh8eX9/01df2KGah/zRUWWEgLJH0mXv+Pj4YWyxbzS97JstsOz7Jvnj3uzF+LEKIZPTbLNg2d8v2d++EIx1SOxLUP0eZU3P6a08Z0TwnHoVqueYjv/wcDO0fUPwOn6zoUG1vUE/k8vl1iFdmzYd/JvNBov2Zc8EfVoZZ227g6GtMdij4GzvhUva4PCX/cnuKdiiIqYy1PBVY57srtS3sFcxBMmeBhs8ByENU5k1LQZbY7rI1xqdbmWFs06jBvmqNS9M7NoceWRa5XrviOn/aZWZGafV2La8Rjhru2WoZy3KLJXCk2yxb4dLYw5fVNqzpdKIJc+2AJW9pZAv1c3smyWw7FM3Jvu3Q8tzWgTPOQLrOYbrfO31HiYZiyBbIWlMsOyN63Y+Sa1CJqp13SETD/jg2Ls0JtJK0waGaYkN8LQ62RkblQJi1xCcL81njVncPatnqrQcLfzVmOndYdieVSkRAo3pzrxigHfVMk6CWguTmJVKt8VCZo+YXA4LK+WOK+A3O4AjJsoNb2dzydYCbNd7WnXgnlbq5KHXe7zMWk5EUgr1a6jsLY35ONmiMZvh1phws7Djr0vb91/MS7w7gawx+/e9Xm+WswhqhBR4twaWPSMM+/NhbsWv6g46ze4IbsQ0DysBO6+EcttxWp2VygFqzN1xukEpsDUHcIHscw45TdEir2zIwm7ROT4rZAp5b+h7+Yes9K/HHZZ3JyGq9CN21Cq1Vyi1RkHeGdKzd/q2Nq00Hai3AWtMJjaeTPrqimDDe1pNWbDsY3PjrL23z9qQVTxdOmdDJhCq7UOuMZ36fkOXBVTbM+rzg2H6G8mKl7VQVR8YlOkvFpPVfS3jvTWsrxPg4Ngb2kVVsaSHUK00X+OojLCzDBx7dz4HxTS8qS7IiifNtI+ZCaSF6i/74u4wFDJ1EtbfLCwNDNuT52kdCt/5FBae3zuBtFYbQ+t77q2CuWpxDdxyln7q3RJohazK43VvlOBN6DSngNmPvz4+PsztbtIySWMC7iZ11muJOge8xpyFU2Na7K1uUuSuPQC3feby0fQcGW3xe7D3VgzKzRZfV/05xPvaNuCYg2K57LrlErFtl+t3S5CnB9wakym3SjjKMSYo9hQdjXF4UzO0GpMyi5nzO4+5cxJ2qTHJKt6hKp2A5/cuCKyqrWB2ieAPgmPvzGMKo07dkcbs1CDHHJSR5eyaX8vdGtWsVOHmFFDq+f5+Ntw2sQQ3n4OyM7Ob9KvdTToNVzepU6WFVGNuU8hHcDVm6sYx63YdMo05vuz1/pnbxROBIPBBTyxJ43FqnfaoNZr4yJIR8MPUTcpoo3ajY69b6jTaZS2wjMhJIV7YDfHCRo3p0DbOgq3PGtPbkLgRoc9juueRvANL7pElSOyJeUxGw1tENAQ8j+lErdToYmi0QE8sMTFGxezr6SY96gDujULqZHZ5u3oXWEJfWmfvvjTfJ1TZ2+XEkrWTIGQ9gZZK+6G7ScGyl18y4HY3aSlUnsMI/afHx7fP9sQSqZt0/6vW/5jDZucTWV1HTPfAVbNShhsxzcMVn3tHmrObtDvFEiJ+s6fqaNwwd+JkEKBSOCkWi9YPKi4/Nn9takyySvvPpuJf0U0sAZu3osEenuN3J+93s0dMteHAdQy0xkR49QRpHVcuEB/5AcceqfLlTT9j0yNNLAHOiLCTh97x48yeWCJlo+AqBTRe7NBNClal/RDdpPOt3aRQPYdhns17q4Xt96RdFhWw1Qdz4Op2NllPLF17JHKlBTdimqV+/DwVRo1uZb0l0NCYo8BOK8rJbPLEUrmKocw4nuQr+wKBzgaYtXJ3LdlbbGZcT/HZ9lT6nlpigppY2v2dCsTvKdmT/F7QRvjE0kgTYGtMR+1EK9VdE0slwBqTQfJwOM6sCHrLzXXAE0touOj17u0NNMSuOsC7SeXFsl47tHJppP2Y+1eb/c4h/xga83mbxoRb6c8s8/cLO39PmliC6/cMkub/LG7llW94yw/1EtyYwyAhlVoHTIYtdZ3x/qwKOd67Zh+Ms7Y2WkvMUa3G4A/6Wyun6AzdMBXvfSL2mN99CruDE2WJGpA0Ju1GAoh+7yKvjRzQEGz2DvsK1UYFX39faVQhs0fMGFuCwpRClVNA8uX9/aLP2m4Trv33yy3mx29Dvv8+1N2kYd5/fxze/fc3b98+2Vctw5L236tQbW9AzWRVbP994/Xh9t8HPrGEUM25m7QW3MQSxVR8YbPOcTAIUOcUKCaWOHD772kQevZEjRljNAwobPvvu1iDTrfbCK4HfA/2iMX3iBCOq0oVbsREudunh8uxFfDJ++/B9qWh3MvEklWICOn++6ib9D9gLy8c+xRI3aRwPYeJ9fHqA7EHHPL++1h2PhmvS8o1szdq9QaYX3Rgd5Oi7fvvgzut0rsnAtObJ5ZwpeCcWAKjMeP71Mp97sek6+SlXX8Pav+9RNSYjHvWjQnK7/dj73gRWrWDTyx1RlA15pI9QmoG419zJxXA7r832aPMcHI7l2x6rHe+tgl09sFkz857BsK4/17ydDSGqZtU2k1jHsHMwkrrTt651WVB2qcAtA9ZWk4s4fvvUYj23y9jjjqez4e5VUy89kwsnWHrPaGxXyYVHPvvp86q2xQvlsNj7wJiNQcC3H8f3/1/RoooEfdjul9OgPsx6TRmqPffSxQ9GVbVH7jfL/ffY2iNoP72XSvm4GlipE0rR3hz0VGlDbS7aMk+lnp+Hq4DS3j23y9Pq/mTWWzeuv8ersYcW7k0a2IpRNXmHTUm0Eq/5Mkhh6mb1PR79fbR7Ca18/ekbtIzmB0uLxpz8vR0u56CKL32Og7geG9PqdqoVvAGo2a9ex3caUWlc8gaE9VaGMoBZqNotntu3sHuBP6IvxozvevSq2U3qURfKwfk9wpF56wFBRB7ih24FiL2EfuIfcQ+Yh+xj9hH7CP2JnydUI1sH7GP2Efsfyj2jBxm9sg/9qd5mt9+uBf7mMz7xZ7PF/ZhL9Cwl5IW+dMDk+dEiZ58gU9R/EZ047LNW8Y/OPnkPo4j5mjIx2K5F/qnHLf8PLX/2vT1Nx62/kiK/B7XrJRP0ZE36CfFpJg/NESZT9IiL2ZpyRtRMyelIEDKUsWbCBEiRIgQIUKECBEihBP/Aj5zYPSb1ApOAAAAAElFTkSuQmCC;" vertex="1" parent="1">
          <mxGeometry x="100" y="80" width="49.55" height="70" as="geometry" />
        </mxCell>
        <mxCell id="S95Ez1MxiO2wJvPFgndC-8" value="AWS Sitewise" style="points=[[0,0,0],[0.25,0,0],[0.5,0,0],[0.75,0,0],[1,0,0],[0,1,0],[0.25,1,0],[0.5,1,0],[0.75,1,0],[1,1,0],[0,0.25,0],[0,0.5,0],[0,0.75,0],[1,0.25,0],[1,0.5,0],[1,0.75,0]];outlineConnect=0;fontColor=#232F3E;gradientColor=#60A337;gradientDirection=north;fillColor=#277116;strokeColor=#ffffff;dashed=0;verticalLabelPosition=bottom;verticalAlign=top;align=center;html=1;fontSize=12;fontStyle=0;aspect=fixed;shape=mxgraph.aws4.resourceIcon;resIcon=mxgraph.aws4.iot_sitewise;" vertex="1" parent="1">
          <mxGeometry x="440" y="200" width="78" height="78" as="geometry" />
        </mxCell>
        <mxCell id="S95Ez1MxiO2wJvPFgndC-16" style="edgeStyle=orthogonalEdgeStyle;rounded=0;orthogonalLoop=1;jettySize=auto;html=1;entryX=0;entryY=0.5;entryDx=0;entryDy=0;entryPerimeter=0;" edge="1" parent="1" source="S95Ez1MxiO2wJvPFgndC-9" target="S95Ez1MxiO2wJvPFgndC-1">
          <mxGeometry relative="1" as="geometry" />
        </mxCell>
        <mxCell id="S95Ez1MxiO2wJvPFgndC-9" value="Grrengrass" style="points=[[0,0,0],[0.25,0,0],[0.5,0,0],[0.75,0,0],[1,0,0],[0,1,0],[0.25,1,0],[0.5,1,0],[0.75,1,0],[1,1,0],[0,0.25,0],[0,0.5,0],[0,0.75,0],[1,0.25,0],[1,0.5,0],[1,0.75,0]];outlineConnect=0;fontColor=#232F3E;gradientColor=#60A337;gradientDirection=north;fillColor=#277116;strokeColor=#ffffff;dashed=0;verticalLabelPosition=bottom;verticalAlign=top;align=center;html=1;fontSize=12;fontStyle=0;aspect=fixed;shape=mxgraph.aws4.resourceIcon;resIcon=mxgraph.aws4.greengrass;" vertex="1" parent="1">
          <mxGeometry x="210" y="80" width="78" height="78" as="geometry" />
        </mxCell>
        <mxCell id="S95Ez1MxiO2wJvPFgndC-10" value="" style="points=[[0,0,0],[0.25,0,0],[0.5,0,0],[0.75,0,0],[1,0,0],[0,1,0],[0.25,1,0],[0.5,1,0],[0.75,1,0],[1,1,0],[0,0.25,0],[0,0.5,0],[0,0.75,0],[1,0.25,0],[1,0.5,0],[1,0.75,0]];outlineConnect=0;fontColor=#232F3E;gradientColor=#60A337;gradientDirection=north;fillColor=#277116;strokeColor=#ffffff;dashed=0;verticalLabelPosition=bottom;verticalAlign=top;align=center;html=1;fontSize=12;fontStyle=0;aspect=fixed;shape=mxgraph.aws4.resourceIcon;resIcon=mxgraph.aws4.freertos;" vertex="1" parent="1">
          <mxGeometry x="90" y="112" width="38" height="38" as="geometry" />
        </mxCell>
        <mxCell id="S95Ez1MxiO2wJvPFgndC-14" value="Device Management" style="points=[[0,0,0],[0.25,0,0],[0.5,0,0],[0.75,0,0],[1,0,0],[0,1,0],[0.25,1,0],[0.5,1,0],[0.75,1,0],[1,1,0],[0,0.25,0],[0,0.5,0],[0,0.75,0],[1,0.25,0],[1,0.5,0],[1,0.75,0]];outlineConnect=0;fontColor=#232F3E;gradientColor=#60A337;gradientDirection=north;fillColor=#277116;strokeColor=#ffffff;dashed=0;verticalLabelPosition=bottom;verticalAlign=top;align=center;html=1;fontSize=12;fontStyle=0;aspect=fixed;shape=mxgraph.aws4.resourceIcon;resIcon=mxgraph.aws4.iot_device_management;" vertex="1" parent="1">
          <mxGeometry x="440" y="-30" width="78" height="78" as="geometry" />
        </mxCell>
        <mxCell id="S95Ez1MxiO2wJvPFgndC-15" value="Device Defender" style="points=[[0,0,0],[0.25,0,0],[0.5,0,0],[0.75,0,0],[1,0,0],[0,1,0],[0.25,1,0],[0.5,1,0],[0.75,1,0],[1,1,0],[0,0.25,0],[0,0.5,0],[0,0.75,0],[1,0.25,0],[1,0.5,0],[1,0.75,0]];outlineConnect=0;fontColor=#232F3E;gradientColor=#60A337;gradientDirection=north;fillColor=#277116;strokeColor=#ffffff;dashed=0;verticalLabelPosition=bottom;verticalAlign=top;align=center;html=1;fontSize=12;fontStyle=0;aspect=fixed;shape=mxgraph.aws4.resourceIcon;resIcon=mxgraph.aws4.iot_device_defender;" vertex="1" parent="1">
          <mxGeometry x="440" y="320" width="78" height="78" as="geometry" />
        </mxCell>
        <mxCell id="S95Ez1MxiO2wJvPFgndC-22" value="" style="edgeStyle=orthogonalEdgeStyle;rounded=0;orthogonalLoop=1;jettySize=auto;html=1;" edge="1" parent="1" source="S95Ez1MxiO2wJvPFgndC-19" target="S95Ez1MxiO2wJvPFgndC-20">
          <mxGeometry relative="1" as="geometry" />
        </mxCell>
        <mxCell id="S95Ez1MxiO2wJvPFgndC-19" value="" style="points=[[0,0,0],[0.25,0,0],[0.5,0,0],[0.75,0,0],[1,0,0],[0,1,0],[0.25,1,0],[0.5,1,0],[0.75,1,0],[1,1,0],[0,0.25,0],[0,0.5,0],[0,0.75,0],[1,0.25,0],[1,0.5,0],[1,0.75,0]];outlineConnect=0;fontColor=#232F3E;gradientColor=#F78E04;gradientDirection=north;fillColor=#D05C17;strokeColor=#ffffff;dashed=0;verticalLabelPosition=bottom;verticalAlign=top;align=center;html=1;fontSize=12;fontStyle=0;aspect=fixed;shape=mxgraph.aws4.resourceIcon;resIcon=mxgraph.aws4.lambda;" vertex="1" parent="1">
          <mxGeometry x="620" y="76" width="78" height="78" as="geometry" />
        </mxCell>
        <mxCell id="S95Ez1MxiO2wJvPFgndC-25" style="edgeStyle=orthogonalEdgeStyle;rounded=0;orthogonalLoop=1;jettySize=auto;html=1;" edge="1" parent="1" source="S95Ez1MxiO2wJvPFgndC-20" target="S95Ez1MxiO2wJvPFgndC-23">
          <mxGeometry relative="1" as="geometry" />
        </mxCell>
        <mxCell id="S95Ez1MxiO2wJvPFgndC-20" value="Amazon Location Service" style="shape=image;verticalLabelPosition=bottom;labelBackgroundColor=#ffffff;verticalAlign=top;aspect=fixed;imageAspect=0;image=data:image/png,iVBORw0KGgoAAAANSUhEUgAAAFgAAABgCAYAAACZvLX0AAAgAElEQVR4Ae2dh3cUR7b/3z/y1rvrNQ5gMBgwmGTWNmCMWa8Ttp/9nLBZwIEcTc4ZgYQkJEAiCSGCRM45Z5NzzknSTHdV5887VS28IxCypEWI3+/Q5/SZUs9MdfW3a27f+73fW/ovnm7lisB/lWvvTzvnKcDlPAmeAvwU4HJGoJy7fzqDnwJczgiUc/dPZ/BTgMsZgXLu/ukM/v8Z4ECYeJfP4vy2GffgZtxDm3APb8I9shH36AbcYxtwj6/HPbEO96Ta1+KeWot3Wu1r8M7c21fjnS3Yz63GU/vFDQR3ToCdX84QFt99hc5g79xxrFWZmJP7IFJ7I6b1QqT3RMzsjpzdDZnRFZnZBZnVCTm/I3JhB2T2L1iLfsZa/DPWkp+wlv6Itaw91vL22CvaY69sF+5rO+LuHod/63DxCJTzuxUKsL0qC2Pov8hrU5/89nWJdKhLpEsdIj1qE+1Vk2ifGkT7V8cYVA1j6MsYw6tgjHwJc/SLmONewBz/POaESpgTn8NM+Bti0rOISX9BTHoGkfhn5JSX8I5nlTOExXdfoQA7O9diTOxO3r8akN/hDYxxPyAzBiAz+yGz+mLN74O18Fes7N5Yi3phLemJtbQH9rLu2Cu6Ya/shr2qa7iv7oK9pjNWVgvk1GqIyc9hzX0b7+zy4hEo53crFGDv4mlk5gTy2zcm/5dGiOn9cfauwD21E++02nfgndmBd3Y73jm1b8M7X7Bf2Iqn9osF+4VN2g7bi79ETnlZg2xv7IF/fV85Q1h89xUKcGBb2JtyiHT7B/k/1UfOGox39kDxI37Yu67EzzuPnfM5MrkSclZDvFOLCYzrD/vGYzleoQATBLhHdmLGdyPS6U3Mcd/jbMos04UHxjW8Ewuw5jRBpLyEldOKIP8iBF6Z+ntUX6pYgAH/1lXsTdlEer1HtGcT5Mw+BMZd8JxSXaN/4wD20u+QU6trkJ1dYwms3FL1UR4frnCAA8fCu3gCY+S3RDo3xBz7Fe7pXQRmXomvN3AMbQ5k6iuI5ErYy9vgX94KrixxH+X1wQoHWF1YkH8bMXMw0f4tMQb/A2vZBPyb50t8zf6dUzi7xiPin0GmVMbZNgwFOoFf4j7K64NPBsDSwNmzCjO+LdHuDTBGfoB3tuRPf/dEDtairxAJf8aa9z7u0TkVbnvv3bAnAmA8F//WZWTmUKI9GxHtWQdnexZB/o174yz6Vc1QO4qzbSRiWh1Ewl9xtg5B2eMnZXsyAC5Aw14/C2PYh0S61kBm9cM7tb14nJRrdvMI1tJ/YcY/i0ypind6mQa9+C8+vnefKIDdEzuRcwZogI0x72Nvnl4sEoG4g7M7CTn7XcTkalgLPsa/fgDl/j0p2xMFsJ97HWdrFtHerxPtXx8rZwhB5Ab4bpF4BfmXsHK+Q0yugZz5Fu7eJILIpSI/W1EHnyiAle/rHtkUAtxTmYneBLlXUDa6qC3IPY/M/AAx6SXk3Pfxzq8nkHeL+miFHXuyAA583GObiXR7lWjP6ljZgwls86HuVjiDWyMmv4qc+wH+xS0EsuKDi9i7+UQBHETv4uzMJtL1VaIDGmKvnPhQcNVFBNHr2Ov6ItIaIWe+jbs/lSByOfb6Krz9RAHsXz+LvTpVA2yOeR+nBA85995DLq0ezoZfCe6eqnBQYwfwRAHsndmPnD9cexFicmvcfYtix/pAO7AieCeXYs3/DJFSA3vR/+LfPPTA5yrywBMFsHtwA2Ja19APzuiJd3xz8di4Fv6t41jL2iISX0TOfAP/6u7iv/OY361QgAMrSmDmol4Vb+Bsz8aM+0YDbC2fiH/lWPFwBD6BHcVe0w0z/q+IyVW0J6GZON8lMG4QOGbxfZTzu48d4MAy8O9cwju/F2fPPNyTGwnskJixV00lOqB5OIOz+uHsXoB3clO4n9qId3oj3hm1b8A7uwHv3Hq9W4tbI+JVPu5Z3KOZBOIWgZWHd2Ix3slleJd3EuSdrxB27fEA7HsEttAUpHfpIM7OOcjMrhijGmMtGfS7p2AtGEOkY00NsDG8GWb8J4jJXyCnfI6c9hky/VPk9FbImR8jZ3+EzPgIOedDxNT6iEkvhFzErnH4d46jXDh7SXtk5sdYS9vhHkjDv32cQOaBIwrOWf4R32MB2L97BefAMuSC/ojkLzFGN8UYWp/oAOXr9iWQEX3BsQBHe9ci2r82xqDaGENrYo54FXNUdcwxr2COq4o54WXMiS9jJlTGjFeZ5b8UBjjvAlb2d4iUuoikV/RNkFmfYG/oh3tiEYF566ER4qO0GuUCcOBI/NxruKd34mydjZUzFDG1DcaoZkQHKNDqYk76BDm/B+7BpeBIzR8o0YmVMw45bzDW/IFYCwdg5fTHWtwvvDHD6mEMex4580OsJT9jr+6FvaYn9tqe2Ot742weiH9pK4G8o2eqe3QB9uqeyNktEUnVMBOrap/ZWvgF9vo+uL+l41/aRmDeLHUGpaQ34dEB7DnaBPi3LuKd2oW9LROZ1R9zdEuMvq8R7V8HY0QTzPiPkbN+wd6You1wYP47tA2kgX/3Gv6VE/hXjuNfVfsx/GvHsLInYgx/H2PoC9jrVHJ0Df7No5pNU4ya/vnH2ln1AHSEtr+KEFLiFJnREjG1LmZSZT3j5awm2Gu7abvtX9lFkHcuDLUfIVH/yAAOIrfxjm/FWjwec/znRHq+RqRnTaI9axDt9zrmuPexFg/DPbmVQOSF/IK+kPvsoGLC1PH7dnvVXIzhn2EMfRFn12SCvLMPfKZIFk31o8giV+ibYm8cgMxogZlQCTHxr4iEZxGJz2PNbYmzeRD++bWP9GH4HwEciAje6b3Ya6cjZ/XFnPANxrB/EP21AdFf62GM/RCZ0QN7U7rWOPjXT4YJTb/0mV57ddbvALu7U/RsK+nPNPxcoO2umunehU3aPNirO6NmsZj4Z+3iyekNsOZ/hL22M+6BVPwrO/Wv4D9JPZUOYM8lMCP4V07jHt6CvSEDOXsQxugviPb+O5Gur2EMaYGZ+D1y7gDsjem4xzZpt6x0YDz46f8c4Jg+fUf7yBrofcnYqzthLfgEOb0+YnJlZGpVrHktsdd1xf1tKt75tfh3ThLY6mF83y8uptuimn8MsOrQdQhEFP/WFdzju7GWpmqZU6RrIyId6xLt3pBon7cxhn+AnDsQd/9KgrtXSj2YogZ479gjBfhep+pVBSQyF5XXs9f1wMpsjpxaAzH5BUTiX/VuZbfC2aMCnx1ayBIoxaZnx/by0PYfAhxYJt6F49gb5iGm9iXa7yMiPd8l0vkNIp0bYPR5BzG1K/bG2XgXj+DfvYoyHaXVNTx0hAVvlBvAKJvvEVj5BNGrOp/n7p+sU/9yRgNEwjOIlBeRaTWxMptir/4J9+BU/Ju//dGQ9ftFA+x5eFfO4exZh7V4CiK1H8bIH4j0bKklTpFfW2LEtUVmjsDZOh/32Hb8mxf0TC/tT6hEowTKD+D7RuBZBLmn8S9uxD00A2dzf6wcFeTURiQ9i0yviTW/JfbaX3D3JeCdXYafe7pgRj9oPgoD7Pv4d2/hHtqJXJyGMaErkW7vk/+v+kQ6NSXa7xOMcW0Rc0Zgb1mId+Eo+I9He/DYAI7F2zE1eO6xTOwNPbAW/FNr3uTUlxFTXkROr4W1/FucvRPxLm0OdXCeFdtD4UrPwJbYm5eS/2Nz8to0Ju+HBuT9UJ/8NvUwxrTHWjkD7/JpHfaGM/XBO1ao90f4R4UArMevTEhA4Ar8u6dw9iZgLWqFnFYVkfjfiKQ/IZKeQWa8obVxyszEboVmsJ97G2v5bPK+b0xe64bkfV+f/J+bYAxtjb1mjpY4BdJ8bLM2dqAVB3DBKAqYO//2MZz9iVg5n4QAK5AT/xs5ow7O3gn4uYUJ/0IAB0Y+zp6NGHE9iPT6jPyfmpD/01tEB3yJmDkce30W7qEt+Dcvoh5+j3OrOICVFyW0XfbOr8E9lIa9vityblNE4p8QKZX07LXX/KzF3vfLZQsBrAALonm4x/chM+IwhrfVNjjySxPy2zck0q05RtyP2Osz8c4dQuXQcKzHMqMfO8AqAlTAmjcLPIskrEWfo+1vSqUCG6weeC1wtg/Gv7IV/AcVoQ8AjKIWLUmQdwfv0mmcnasQKX2I9PwH+T/WJ9KxMZFe72KMb4PMmYh39jcCs/wreR43wIpP9i9vw9kyMCxLSKuBSFG+8Z+Rs+pjr26Pe3S2LrIJxE1w1S/6wWfSgwDH/u5dBz/3Fu7xPdo8iJlDMYZ9RaTTG0S6vkl0SCtEalesZUk4+1biXT4ezujYPh5R27t4CmfPCpzdM/BvHC6X8iylyPTvnsY7tQRn+wjspd8iZ72BmFwJOaUqVta7OBt74B5O1/JYLXK5z2u4/3KLBzjm0yqS884cxFqZjpncFWP4F0R/bU6k0+sYA1sikn/GWpaAe3gj/rVTIedQxB2N6fLJaCoWUN7Bv3UU78wKHbFZS75GTquFSHoOOa0m1txm2Kva4e5L1OZCze6SbiUG+PcOla+cdxNn93LEtN5Ee7xJpHNdIp1qhVzEwGbIrEG4x5VNKj2p8/t5HlMjELfxL2zCXt0x5CLin0Ek/EnvMq029oq2eCezCSIXyzSi0gPs2ngn92ItScIY35pI53pEOtYOAe5Si0iPukQHv4MZ/xVyTm+c3dn4N86WaXDl9iWVjb57CvfwrLD0K7MFcpqK1J7XIu7fAU6pjDW3Oe6eOPzrewm0Yv5BO1vcOP8Y4AKyx792HvfIduxN85Gzh2GM/4Fon3eJdFBkegvMia0R6d0wE1oTHdycaO+6RPs3QqT8gLVkNM7u+XhndxPkXXuo1qy4gf7H76lgIf8S3qVtuIdmY28aiLWgFXJKTUT8X5Dp9TSjZi/7Hmv+B5p7EMnPI6e+gpXzKc7mvriH0jWzFuSXPIH6cIAVg6aoydvX8M4fw141CzOxC9GeLYh0bESky9+1DTYGf4ic1Q9n+wK88yqhmYOc0w9j7CdEhzQh2rcu0T61MYa9iczqhbN/Ef6N0+hMhms/UsatyJvgSrQZyD2LeyQTa8UviLQGmAnPIZIqI6fUQs5ojL2uG96xLM0Bu4dnYq/6ESvjLeS0VzWzJic/j0yvhbX0Kw20f2M/QfSKJomKY9aKBtj3NDXpbF+BmDaEaO+PiXRpTqTD38n/pSGRns0xJ3XAWp2Od+k4Qe4NAhnVHoR61dmNS0ewN8/ATPoWY6Ai4GtgDHwdc3QzRFobnK3TQ6DdwrF7kSD9Bwf9G4dwdici56rscz1EYpUwm5FYGSvna9x9yfhX9xBErmiNhSqcUbxvYN7QIhZ3bzx29ifIadURSX9BpDyPTKuOldUMe20HvJMLQknAQ8ZYGGDXwbtwCmvZbMTUoRgj2xPp8WFI9nRviTG6DXLWMOzN83GP7sC/fg5VJVQU468Tn7fOa8Ld3jAFObtLmPQcWAdjaAPMxFbIed2xN03GPbGeIP8aPAqwPZsg/zLe+c04O+Oxlv2MnPUu5qQqiISXkNPfxFr+E87eyXjn1mm3DK3LKOKBbEcJ7p7UaST3QArOhu5YCz9ETquGSHkOOeM1rOyPsNd3xj04JcyyuKIQ1IUADowI9tblRHt/QX7bt0Iuop3yed/DTOmDvW4u3ukDpQ6TVa2FWprAWjYakd4WM+4fGMMaYAx5DXPiu8iszjjbVVppM/7tcwVZ5lKwdJrPjeDfOY13bgPO3qnYK7oipjTEnFQVkVQDOeMtrOyvcbaN0sBqHfFDhN2FECr4Q5uZa3twD0/HXv6tpi012aO4iJRKWAta4p1Z8kBlaSGA/dvXsRZPJ6/1PbKnAfkdm2NO7IJ7eDsq6xvSk6V7ksYO2Lt8GHvTFETaDxgjGxEdUJXogCoYAyojUj/B2ZhAoEC27pVhFXeuMEGq5FP+tQM4W8Ygp7+DmPAS5rhnMcc/h0iujZz/Pzi7J+HfPkFQ5l9JSMyrDIgC0l7x/b/JnqQ/hWTPjuFa9BJ7vYUADhwb99QhxOw4In2+JP/Ht8lr24hI5+YYI75HzhmNs3cNfq7SERStOo/tvKi2lk7lXtHpePdADtbi/pjxLTAGV8ccXhtzYhOt4rFXj8A7uS58GBblT9/Lq51Yjr12ANacTxEpjRBKjBL/MiLtLex1/XCPq4fqYe1BaJ2a4hjKsCnPwTuxEHtdJ80/yLRXNNkjVVX/vHdxdgwrCEIK0waFAFbn1WTP6UPY6xYgZozCGNmWSMdmRH5WXsMHmJM6I7PjcbYvwjujeAiVHioj2NFbeOd24WyfjpXzKyL1U8wx9TAGvYhIaIaV9RPOpom4BxfgX/mNIHoTrAj+5X24hxfibBmPteAHRMobiLgqmPGvIDM+1oIUd38a/pXdqEKZMm0qV6cfdDvxTszH2T4MXcmvHnaKQUt/FSvnY5xNvXCPzNRV/WHxY2Fb/gDAsYPxrp7H3piNObErxqD/JdLjPfI7Nib/p9eJDvlUp4xUdlkJpwPjntahuJ90bO8xbdfGv3ESZ0c61tyfEJOaY46rjzGiOsaIqoiU97DXDMM9shjvjIq6BiDT/oEYXw1zfFXEpNeQae9gzf8Wd/8M/NsnYzovRVP5/OohKe7g3zmBd3IR9vpuyDlvIadUQWhXTeXm3grJnmMZ+KrgvJgEaLEAq5mpCPYg/w7uiX1YS1KJjvia/E5vkN+hPpFujYn+2gwxrTvOjhz8/FtlnM3qwhwtYw3yruJfPoC9djQi9Z9aaGKMqII55lXMuLqYE5WIpTrmaGVnqyKnt8TeMAzvjDInt0JXqwjasEQwe7YGzD00PSR60usgJr+oc3EitbIme1yVXb60RZcq6BmrH5QPn1TFAxwzKmUKvCtncA4obyAVM6kT0X7vhZFc33cw475FZvTH3pyhpVNB7vWyBRHK3toG/vVjuEeW4WyMQ2Z8gzmhvtalGcMrYU5qgMz6DmdLHN6JFfg3jhCYt2NGW4qmmrHmbfzL23H3p2Cv7qA1ETp1ryK5aTWwl32Hu2eCXmxJuW26ir+EHkiJAf59yJ6Ld/UM1qo0jLHfEekUw0V0r4sZ96XWRmigz+zGv3O51G7d7+dSTn/uRW2D7RX9kJnfIed8jb1mEO6RHPzc82WTB2gyXXHe5wpUPmkFmoh3kYmVwlS9InzUuhOZzXD3KQ/k6O/DKk2j5ACrQSmTYQn8W5ewN83DTPyFaLfGIZvW5TUi3eoQ6aZeaxLt2xAz8RutrvSvngAVFqvZWUplzL2LUbreIPcC/s3joWD73huleg3CMdgGgQqd9yZjzf8YMVExaGoxJaVTU4srhQsrySmvYGV/hvtbKv6tQ6FmTZmfUngiJQbYv3YOZ+cyRMYIjLh2RAd+RKTH26GyR5mIhDbIrKGIaZ0whr1HpEctov0aYIxSisa22CvjQrLHKPtTXUd6qiSgTKuYBFrBo+RSztbhyHmfINMbIpJfDsmeGY2wl3yHs647SsmjTINIfBaZ+jJyZgOs7I91JKc8Cj/3DPwB0X7vvj8cYJXNuH0N99ge7A0LkJnjMCf8QuTX98n/pQGR3u9ijGuNnN4Ha2WqXsxICQHdwxuw16chM3pjjG9FtF99jP6hulJmdsdek4BzYAn+teMon7i8NyWLUvJW7+QSnJ0TQhnrjDcx459DpLyCNaeF1qa5+ybjnVmp00TeyRzc3eNDwmfuuzqbodJFcnptrMX/g7Oln05+ehfWaTVQcWA/ALA2ATev4J09qhcsEtMGEe3xgfaDFdkT6d2S6KBWiGm/Ym/MxDt/OJRKxSClgPMU2bMmGTG1HeaYlhhDGxPtWxNjUD3MxM+w1ybgnd6Of/cSgcwv1c8u5lRFN1UQoqRQeRfwzq7F2T4WmdUqFGEnvIBIrYmY3hhrsXp4JeDfPAxqAY+YTenPFAfs7k3AXvatXqZGsWki+W9I5QervNzKNnjH5oRcsSqAVLP6PvPxAMDemaOI9FFEB3xLfueW5P/4JvltG2iAjRHfYS2ZrAWA/p1r2h5rDdr9dlX7k+oiDfy8a7hH1+uyWHNUU6L9lemogTG4DuaE95A5fXFPbHiks1lVgLpn1mCt6IyY3gRzkoru1CJ2z2pOwl7/q9YK68IYBay2q/e5WgoodVwRPpEreBc24O4YgZzdUDNqIvnPIeEztQpW1jt6VivJlcpEx26FAFYJTnvtAiLdWpHfvgl5bRpqgKN9P8VaNFnzEf7VM2EWuaTRm8pSR2/jXTqEe2Ap1rJRiJSvMQbVIjq4Fsa4Joj0b7GWDsLZq/jYgygm7v6ZEDvootqqKNG/fhD3YAb22r7IuZ8hUuthxr+kyR5rXiucrSPwTuTg3zgYunXFBAiFzqGiOnGH4PYxvLMrdVhsLfznv7mI1Oex5jXXD0PlmcRuhQG+exN73UIiPT4rDHC/z7CWpeGdOoCauUrOWupNy48s/CtHcHZmYs3vhZj6NeZ4VRBTC2NkPUTa/2KvHI77WzbepX0EkesFhSr3za57J1cXHlGByR7cQ/Ow1w9GZrZCJNdBTFTkUX3k3I91HYd7KIPgzkkoa92ca+qlEvwr23F2j8PK/vB3gOWUF7Hmv4d7oEB5f298UFibpo57508gMyYS7f81+R2ak9+uccgHd2mOmdAFZ9tiDbLSsZWVgwi1F1Hc4+v0zDXj38MYXgdjcDWMIVUxR9bCWtAF99BivV6EqrUIE6gFQOuSAEkQuaY5CWvhvxCTamOO/Rvm+BcQk2og05tgr+yKd2Z12fkIZer0uYReydU7mhGKTxTRk/QMYvKziNQXQrJn+zCt/inWRCiAf3/InTqEtToTM6EHkQ7NiPzUmEiXpkQHtsJM6IC9Mk2re8qmrgz9UVWr4d+9iHdhL87WKcgZ32GOqosxpArm2HqI5PeQc9vi7EzDv3bk96Sjf/UAzo5krKzWyClNEfE1McdXRkyshrXwe5w9qXiK6Ll7NlzeoIRRV8zE000tPrm+T89Ye+nXobJySmVE8l+Q02tqylITPdd2hQuBqKToHz3kwpOEqnb/+kWc/ZuwlkxDTO5NdODnRDqofNybGCO+QswYgL0qDfe39Zrw0cHE/Q+8+0dd1N+eg3/rDO6RFdjrJyAz22PGv40x8lXMMbUQaa30wqD25gk4u9OwlvVApv8TM6465rjKyKlNsXLa4WyLwzu1Ev+u8lOVAv0hpqWoMdw7pqJHRfScWYbiHXTonNm0gOyphJzzZqiRUJLV86sJogXew73v3/dayAbf9174p+/rWe0e2YGVk4g5vp120yI9mmqFe7RrI8ykn7HXpuGd3Y9/+3KYn7vvThbZdxEHA/MO3skNWCsGIWd8iUhsijm2NorwMUap4sPXMcZWw5xQC5naBGt2K5wNw3VpbVF0YRGnKOJQAMqty78QchIK2EVfhJnlxL/qfJyc1Ugv1+jsGIl/dUeY7Cyip/sP/THA6htqVqossyX0InLO7pWIqb2I9m5GpEMdIl1e10UwxsiPsZbE4Z3ZG2qI7z9bSf5WN0Yxa7aJf+s07sFs5Nw2Idkz/HmMES9gTqiDXNge9/ACnSbS5bF6KcYyzFg1JpXkvbQFZ1Nf5KzGyJSXdBQnkv6GnFINe01HzQlrN8yOFu3WPeTaSgZw7JeV25V7A+/sQZwdi5FZIzBHfU601xtEe9TXhTAi5UesnFE4exbhXz9ddrLHkQT5V/Eu7sY9MA9n6yTsTeNxD2fjXd6rPQi9fGJpfy1K66tNwUm8E9k4G/pg53yBrslIfgGZrNyulhpw7/iCMJBQwupyEZ7EgntfW6XolbrSXjdDL+ppxn0Vik76NCI6SK2C2hZreRzO/qV4lw7rpQvK6nmEZM8l/Ntnwtq1+8ZSoj+VW2fcwL+2D/fYApzto7AXfY1MUWteVkam1dErByq7q8q3/GsFap7S3sCYwZR+Bsd8Obbp374Uik4y+mKM+YRon/pEetXSlZ7GqBbIhQNwT23XNcz/DiTK+JOOPfEftgtcLcfUvIF3arleX0Kk1kKoas9JzyGTqyBn/R171S/hcgiqdrmspP1943lkACsPQgmyFdDusa3Yq5Iw478g2r9BqOwZ2hhz/PvIuT1w9szHV8smKgqzvDfPQi0e6h6cibW0LXJmU0TKqyHZk6wKDj/E3TVBkzwqdFbp+SJD5zKO89EBHDOAQERQHLCzT4XG4xHT2ulC8GjfVzFGvIlI/QZryRCcbel4p7aEopOSht4x53loU5ViRa/hnV2Hu28q9rreyKyP9fJf5qSXEFPrYC36Vq95qfJuwW2lay6fkohyATj2wtXqJu6B5ailCUTKN5hjW2AMqUe0z8uY45sh53XD2TsP//JvBPnXy25flZ10LU3M+FdU6JwRLsiR9gZiUhXMpGrh8l9qzYi1PfBOLQupxtjBlkO73AHWkY3OhBj4ty5gb5uFmNqaaN+qRPtVJTrwFYwRdZFpX+FsT8O/WbhKp8TXrLyC/Iu4uxKxMlthKvFJXCXMuGcRyTWQ8z7Vcin/+m8FmQn3gairxOcqxQfLH+B7g1Fkj6Ps4SX9nwWcXZl69poTmhMd8DLmyNcRScpG/4yzcSLesVX4d/5gkWZN9lzTGWVnq9JIKElTM8Sk6phxLyCm/V1Tlu6B9HDdntzzYdb53pgew+vjAzj2YnTVfq5eEMlen4Cc8zMi+SPM0Q0wR9ZGTHqnQHQSj3tCLbxxMlx2pqAP5bL5N47pjLKzI1H/Vxg5rSnmmL8hkmojZ7bEWtIeZ4cKZzfpFQJjT/842xUDcMwV6ojt5mltHqyMdoi4tzBH1Az/88sopc19T6t7vIt7UGF0IO7q/6VhbxyNTGuJOfYlzLEvIiZUQyTVwcr+Xov/1GooxQlCYoZQrs0KB1jbaPVwMm5r++seXYW1bECo7tHKHsU7NECkfYSc1w5raU+EInoSVJ7vZczRzyHTWuCsG4h3bqNW9WiNhGa2HlvUtHEAAADUSURBVIefXfz9qXiAY8enwnDjDt7FvTh7M7GWD0RM/xxzbC2M0dUxx7+GmdAIY7TSodXBmq1ye4NwD87Fv7of1IIZRQkFY8/xmNtPFsAxF69kpkrd4+yZibWwEzJdraHWDJH8NiLtn1hLOuPun01w93yoJ4757pPUfGIB1iDpjIKn2TVlg919s3F2TsG/tJfAUOuelV3I8rhuwpMNcAwKmuzJu4yfeyFM85fyP8XEdPVYm//PAPxYUXmEJ3sK8CMEs6iungJcFCqP8NhTgB8hmEV19X9LOnFiVGN3LAAAAABJRU5ErkJggg==;" vertex="1" parent="1">
          <mxGeometry x="790" y="72.91" width="78" height="85.09" as="geometry" />
        </mxCell>
        <mxCell id="S95Ez1MxiO2wJvPFgndC-26" style="edgeStyle=orthogonalEdgeStyle;rounded=0;orthogonalLoop=1;jettySize=auto;html=1;entryX=0;entryY=0.5;entryDx=0;entryDy=0;entryPerimeter=0;" edge="1" parent="1" source="S95Ez1MxiO2wJvPFgndC-23" target="S95Ez1MxiO2wJvPFgndC-24">
          <mxGeometry relative="1" as="geometry" />
        </mxCell>
        <mxCell id="S95Ez1MxiO2wJvPFgndC-23" value="Event Bridge" style="points=[[0,0,0],[0.25,0,0],[0.5,0,0],[0.75,0,0],[1,0,0],[0,1,0],[0.25,1,0],[0.5,1,0],[0.75,1,0],[1,1,0],[0,0.25,0],[0,0.5,0],[0,0.75,0],[1,0.25,0],[1,0.5,0],[1,0.75,0]];outlineConnect=0;fontColor=#232F3E;gradientColor=#F34482;gradientDirection=north;fillColor=#BC1356;strokeColor=#ffffff;dashed=0;verticalLabelPosition=bottom;verticalAlign=top;align=center;html=1;fontSize=12;fontStyle=0;aspect=fixed;shape=mxgraph.aws4.resourceIcon;resIcon=mxgraph.aws4.eventbridge;" vertex="1" parent="1">
          <mxGeometry x="790" y="-70" width="78" height="78" as="geometry" />
        </mxCell>
        <mxCell id="S95Ez1MxiO2wJvPFgndC-24" value="SNS" style="points=[[0,0,0],[0.25,0,0],[0.5,0,0],[0.75,0,0],[1,0,0],[0,1,0],[0.25,1,0],[0.5,1,0],[0.75,1,0],[1,1,0],[0,0.25,0],[0,0.5,0],[0,0.75,0],[1,0.25,0],[1,0.5,0],[1,0.75,0]];outlineConnect=0;fontColor=#232F3E;gradientColor=#F34482;gradientDirection=north;fillColor=#BC1356;strokeColor=#ffffff;dashed=0;verticalLabelPosition=bottom;verticalAlign=top;align=center;html=1;fontSize=12;fontStyle=0;aspect=fixed;shape=mxgraph.aws4.resourceIcon;resIcon=mxgraph.aws4.sns;" vertex="1" parent="1">
          <mxGeometry x="980" y="-70" width="78" height="78" as="geometry" />
        </mxCell>
      </root>
    </mxGraphModel>
  </diagram>
</mxfile>
